<svg width="512" height="512" xmlns="http://www.w3.org/2000/svg" class="svg-inline--fa fa-phone-alt fa-w-16">

 <g>
  <title>background</title>
  <rect fill="none" id="canvas_background" height="402" width="582" y="-1" x="-1"/>
 </g>
 <g>
  <title>Layer 1</title>
  <path id="svg_1" d="m497.39,361.8l-112,-48a24,24 0 0 0 -28,6.9l-49.6,60.6a370.66,370.66 0 0 1 -177.19,-177.19l60.6,-49.6a23.94,23.94 0 0 0 6.9,-28l-48,-112a24.16,24.16 0 0 0 -27.5,-13.9l-104,24a24,24 0 0 0 -18.6,23.39c0,256.5 207.9,464 464,464a24,24 0 0 0 23.4,-18.6l24,-104a24.29,24.29 0 0 0 -14.01,-27.6z" fill="#ffe100"/>
 </g>
</svg>