<?xml version="1.0"?>
<svg xmlns="http://www.w3.org/2000/svg" viewBox="0 0 24 24">
    <path d="M 10 4 C 7.790861 4 6 5.790861 6 8 C 6 10.209139 7.790861 12 10 12 C 12.209139 12 14 10.209139 14 8 C 14 5.790861 12.209139 4 10 4 z M 15.125 6 C 15.368 6.621 15.5 7.294 15.5 8 L 22 8 L 22 6 L 15.125 6 z M 15.125 10 C 14.824 10.766 14.341 11.446 13.75 12 L 22 12 L 22 10 L 15.125 10 z M 10 14 C 3.923 14 2 18 2 18 L 2 20 L 18 20 L 18 18 C 18 18 16.077 14 10 14 z M 15.96875 14 C 17.07075 14.639 17.86925 15.377 18.40625 16 L 22 16 L 22 14 L 15.96875 14 z"/>
</svg>
